<?xml version="1.0" encoding="UTF-8" standalone="no"?>
<svg
   xmlns:dc="http://purl.org/dc/elements/1.1/"
   xmlns:cc="http://creativecommons.org/ns#"
   xmlns:rdf="http://www.w3.org/1999/02/22-rdf-syntax-ns#"
   xmlns:svg="http://www.w3.org/2000/svg"
   xmlns="http://www.w3.org/2000/svg"
   xmlns:sodipodi="http://sodipodi.sourceforge.net/DTD/sodipodi-0.dtd"
   xmlns:inkscape="http://www.inkscape.org/namespaces/inkscape"
   width="16"
   height="16"
   fill="currentColor"
   class="bi bi-filter"
   viewBox="0 0 16 16"
   version="1.1"
   id="svg4"
   sodipodi:docname="filter.svg"
   inkscape:version="1.0.1 (3bc2e813f5, 2020-09-07)">
  <metadata
     id="metadata10">
    <rdf:RDF>
      <cc:Work
         rdf:about="">
        <dc:format>image/svg+xml</dc:format>
        <dc:type
           rdf:resource="http://purl.org/dc/dcmitype/StillImage" />
      </cc:Work>
    </rdf:RDF>
  </metadata>
  <defs
     id="defs8" />
  <sodipodi:namedview
     pagecolor="#ffffff"
     bordercolor="#666666"
     borderopacity="1"
     objecttolerance="10"
     gridtolerance="10"
     guidetolerance="10"
     inkscape:pageopacity="0"
     inkscape:pageshadow="2"
     inkscape:window-width="1920"
     inkscape:window-height="1051"
     id="namedview6"
     showgrid="false"
     inkscape:zoom="55"
     inkscape:cx="8"
     inkscape:cy="6.5454545"
     inkscape:window-x="-9"
     inkscape:window-y="-9"
     inkscape:window-maximized="1"
     inkscape:current-layer="svg4"
     inkscape:document-rotation="0" />
  <path
     d="m 5.1272865,11.077922 a 0.71136536,0.77662338 0 0 1 0.7113653,-0.776624 h 4.2681922 a 0.71136546,0.7766235 0 0 1 0,1.553247 H 5.8386518 A 0.71136536,0.77662338 0 0 1 5.1272865,11.077922 Z M 2.2818251,6.4181818 A 0.71136536,0.77662338 0 0 1 2.9931905,5.6415585 h 9.9591145 a 0.71136541,0.77662345 0 0 1 0,1.5532469 H 2.9931905 A 0.71136536,0.77662338 0 0 1 2.2818251,6.4181818 Z M -0.56363637,1.7584416 A 0.71136536,0.77662338 0 0 1 0.14772899,0.98181825 H 15.797766 a 0.71136536,0.77662338 0 0 1 0,1.55324675 H 0.14772899 A 0.71136536,0.77662338 0 0 1 -0.56363637,1.7584416 Z"
     id="path2"
     style="fill:#000000;stroke-width:1.48656" />
</svg>
